{"title":"Daylight Robbery 2008 DVDRip Xvid BigPerm LKRG","uid":6201205,"size":1228742513,"categoryP":"video","categoryS":"movies","magnet":"?xt=urn:btih:02b0f7862f824d1a4cd8f736380e25076396d9ad&amp;dn=Daylight+Robbery+2008+DVDRip+Xvid+BigPerm+LKRG&amp;tr=udp%3A%2F%2Ftracker.openbittorrent.com%3A80&amp;tr=udp%3A%2F%2Fopen.demonii.com%3A1337&amp;tr=udp%3A%2F%2Ftracker.coppersurfer.tk%3A6969&amp;tr=udp%3A%2F%2Fexodus.desync.com%3A6969","seeders":0,"leechers":1,"uploader":"neon","files":-1,"time":1298625599,"description":"\nAlex masterminds an ambitious plan to steal millions of untraceable cash\nthat is stacked in the underground vaults of The London Exchange Bank, waiting\nfor its last journey, Incineration. Lucky, Matty, Terry, Chubby, Norman and Jay\nmake up his unlikely gang of robbers. Setting up their alibi, the gang check in\nfor a flight and join in with thousands of England supporters that are part of a\nmass exodus to The World Cup Tournament in Germany. Instead of passing through to\nDeparture Lounge, the gang head out to the car park, pile into a van and head for\nCentral London where they spectacularly ram raid London Exchange Bank.\n\n\nCast\n\nXavier Anderson ... SWAT man\nBrodie Bass ... Passport Control\nGeoff Bell ... Alex\nVas Blackwood ... Lucky\nRobert Boulter ... Jay\nMax Brown ... Doctor\nClair Elsmore ... Cashier\nJames Johnson Flint ... Airline Captain\nAntonio Gil ... Bank Manager (as Antonio Gil Martinez)\nLeo Gregory ... Matty\nJohnny Harris ... Terry\nAnya Lahiri ... Check-In Girl\nLaura Martin-Simpson ... Shelly\nRhys Meredith ... Assistant Police Chief\nTiffany Mulheron ... Brunette\n\n\nGeneral Info\nGeneral\nComplete name : Daylight Robbery 2008 DVDRip Xvid BigPerm LKRG\\DR_LKRG.avi\nFormat : AVI\nFormat/Info : Audio Video Interleave\nFormat profile : OpenDML\nFile size : 1.14 GiB\nDuration : 1h 39mn\nOverall bit rate : 1 654 Kbps\n\nVideo\nID : 0\nFormat : MPEG-4 Visual\nFormat profile : Advanced Simple@L5\nFormat settings, BVOP : Yes\nFormat settings, QPel : No\nFormat settings, GMC : No warppoints\nFormat settings, Matrix : Default (H.263)\nCodec ID : XVID\nCodec ID/Hint : XviD\nDuration : 1h 39mn\nBit rate : 1 200 Kbps\nWidth : 704 pixels\nHeight : 396 pixels\nDisplay aspect ratio : 16:9\nFrame rate : 23.976 fps\nColor space : YUV\nChroma subsampling : 4:2:0\nBit depth : 8 bits\nScan type : Progressive\nCompression mode : Lossy\nBits/(Pixel*Frame) : 0.179\nStream size : 850 MiB (73%)\nWriting library : XviD 1.2.1 (UTC 2008-12-04)\n\nAudio\nID : 1\nFormat : AC-3\nFormat/Info : Audio Coding 3\nMode extension : CM (complete main)\nCodec ID : 2000\nDuration : 1h 39mn\nBit rate mode : Constant\nBit rate : 448 Kbps\nChannel(s) : 6 channels\nChannel positions : Front: L C R, Side: L R, LFE\nSampling rate : 48.0 KHz\nBit depth : 16 bits\nCompression mode : Lossy\nVideo delay : 42ms\nStream size : 317 MiB (27%)\nAlignment : Split accross interleaves\nInterleave, duration : 500 ms (11.99 video frames)\nInterleave, preload duration : 500 ms\nLanguage : English\n\n\nScreens\n &lt;a href=&quot;\nhttp://leetleech.org/images/30544096102858296863.png&quot; rel=&quot;nofollow&quot; target=&quot;_NEW&quot;&gt;\nhttp://leetleech.org/images/30544096102858296863.png&lt;/a&gt; &lt;a href=&quot;\nhttp://leetleech.org/images/52393512069069313662.png&quot; rel=&quot;nofollow&quot; target=&quot;_NEW&quot;&gt;\nhttp://leetleech.org/images/52393512069069313662.png&lt;/a&gt; &lt;a href=&quot;\nhttp://leetleech.org/images/77135140960742601147.png&quot; rel=&quot;nofollow&quot; target=&quot;_NEW&quot;&gt;\nhttp://leetleech.org/images/77135140960742601147.png&lt;/a&gt; &lt;a href=&quot;\nhttp://leetleech.org/images/82529657237308013736.png&quot; rel=&quot;nofollow&quot; target=&quot;_NEW&quot;&gt;\nhttp://leetleech.org/images/82529657237308013736.png&lt;/a&gt; &lt;a href=&quot;\nhttp://leetleech.org/images/00343673066099181405.png&quot; rel=&quot;nofollow&quot; target=&quot;_NEW&quot;&gt;\nhttp://leetleech.org/images/00343673066099181405.png&lt;/a&gt;\n\n\n \n &lt;a href=&quot; http://www.imdb.com/title/tt0893401/&quot; rel=&quot;nofollow&quot; target=&quot;_NEW&quot;&gt; http://www.imdb.com/title/tt0893401/&lt;/a&gt; \n\nThanks to BigPerm","torrent":{"xt":"urn:btih:02b0f7862f824d1a4cd8f736380e25076396d9ad","amp;dn":"Daylight+Robbery+2008+DVDRip+Xvid+BigPerm+LKRG","amp;tr":["udp%3A%2F%2Ftracker.openbittorrent.com%3A80","udp%3A%2F%2Fopen.demonii.com%3A1337","udp%3A%2F%2Ftracker.coppersurfer.tk%3A6969","udp%3A%2F%2Fexodus.desync.com%3A6969"],"infoHash":"02b0f7862f824d1a4cd8f736380e25076396d9ad","infoHashBuffer":{"type":"Buffer","data":[2,176,247,134,47,130,77,26,76,216,247,54,56,14,37,7,99,150,217,173]},"announce":[],"urlList":[]}}